<svg width="168" height="24" viewBox="0 0 168 24" fill="none" xmlns="http://www.w3.org/2000/svg">
<path d="M52.3676 19.3002C49.8843 19.3002 47.9426 18.6085 46.5426 17.2252C45.1426 15.8419 44.4426 13.8669 44.4426 11.3002V1.5002H48.4926V11.1502C48.4926 12.8169 48.8343 14.0169 49.5176 14.7502C50.201 15.4835 51.1593 15.8502 52.3926 15.8502C53.626 15.8502 54.5843 15.4835 55.2676 14.7502C55.951 14.0169 56.2926 12.8169 56.2926 11.1502V1.5002H60.2926V11.3002C60.2926 13.8669 59.5926 15.8419 58.1926 17.2252C56.7926 18.6085 54.851 19.3002 52.3676 19.3002Z" fill="#222222"/>
<path d="M70.9698 19.2002C69.8364 19.2002 68.8448 18.9502 67.9948 18.4502C67.1448 17.9502 66.4781 17.1919 65.9948 16.1752C65.5281 15.1419 65.2948 13.8419 65.2948 12.2752C65.2948 10.6919 65.5198 9.39186 65.9698 8.3752C66.4198 7.35853 67.0698 6.6002 67.9198 6.1002C68.7698 5.6002 69.7864 5.3502 70.9698 5.3502C72.2364 5.3502 73.3698 5.64186 74.3698 6.2252C75.3864 6.79186 76.1864 7.59186 76.7698 8.6252C77.3698 9.65853 77.6698 10.8752 77.6698 12.2752C77.6698 13.6919 77.3698 14.9169 76.7698 15.9502C76.1864 16.9835 75.3864 17.7835 74.3698 18.3502C73.3698 18.9169 72.2364 19.2002 70.9698 19.2002ZM63.0198 23.8502V5.5502H66.7448V8.3002L66.6698 12.3002L66.9198 16.2752V23.8502H63.0198ZM70.2948 16.0002C70.9448 16.0002 71.5198 15.8502 72.0198 15.5502C72.5364 15.2502 72.9448 14.8252 73.2448 14.2752C73.5614 13.7085 73.7198 13.0419 73.7198 12.2752C73.7198 11.4919 73.5614 10.8252 73.2448 10.2752C72.9448 9.7252 72.5364 9.3002 72.0198 9.0002C71.5198 8.7002 70.9448 8.5502 70.2948 8.5502C69.6448 8.5502 69.0614 8.7002 68.5448 9.0002C68.0281 9.3002 67.6198 9.7252 67.3198 10.2752C67.0198 10.8252 66.8698 11.4919 66.8698 12.2752C66.8698 13.0419 67.0198 13.7085 67.3198 14.2752C67.6198 14.8252 68.0281 15.2502 68.5448 15.5502C69.0614 15.8502 69.6448 16.0002 70.2948 16.0002Z" fill="#222222"/>
<path d="M87.2305 19.2002C86.0972 19.2002 85.1055 18.9502 84.2555 18.4502C83.4055 17.9502 82.7388 17.1919 82.2555 16.1752C81.7888 15.1419 81.5555 13.8419 81.5555 12.2752C81.5555 10.6919 81.7805 9.39186 82.2305 8.3752C82.6805 7.35853 83.3305 6.6002 84.1805 6.1002C85.0305 5.6002 86.0472 5.3502 87.2305 5.3502C88.4972 5.3502 89.6305 5.64186 90.6305 6.2252C91.6472 6.79186 92.4472 7.59186 93.0305 8.6252C93.6305 9.65853 93.9305 10.8752 93.9305 12.2752C93.9305 13.6919 93.6305 14.9169 93.0305 15.9502C92.4472 16.9835 91.6472 17.7835 90.6305 18.3502C89.6305 18.9169 88.4972 19.2002 87.2305 19.2002ZM79.2805 23.8502V5.5502H83.0055V8.3002L82.9305 12.3002L83.1805 16.2752V23.8502H79.2805ZM86.5555 16.0002C87.2055 16.0002 87.7805 15.8502 88.2805 15.5502C88.7972 15.2502 89.2055 14.8252 89.5055 14.2752C89.8222 13.7085 89.9805 13.0419 89.9805 12.2752C89.9805 11.4919 89.8222 10.8252 89.5055 10.2752C89.2055 9.7252 88.7972 9.3002 88.2805 9.0002C87.7805 8.7002 87.2055 8.5502 86.5555 8.5502C85.9055 8.5502 85.3222 8.7002 84.8055 9.0002C84.2889 9.3002 83.8805 9.7252 83.5805 10.2752C83.2805 10.8252 83.1305 11.4919 83.1305 12.2752C83.1305 13.0419 83.2805 13.7085 83.5805 14.2752C83.8805 14.8252 84.2889 15.2502 84.8055 15.5502C85.3222 15.8502 85.9055 16.0002 86.5555 16.0002Z" fill="#222222"/>
<path d="M96.5413 19.0002V0.450195H100.441V19.0002H96.5413Z" fill="#222222"/>
<path d="M110.736 19.2002C109.202 19.2002 107.852 18.9002 106.686 18.3002C105.536 17.7002 104.644 16.8835 104.011 15.8502C103.377 14.8002 103.061 13.6085 103.061 12.2752C103.061 10.9252 103.369 9.73353 103.986 8.7002C104.619 7.6502 105.477 6.83353 106.561 6.2502C107.644 5.6502 108.869 5.3502 110.236 5.3502C111.552 5.3502 112.736 5.63353 113.786 6.2002C114.852 6.7502 115.694 7.5502 116.311 8.6002C116.927 9.63353 117.236 10.8752 117.236 12.3252C117.236 12.4752 117.227 12.6502 117.211 12.8502C117.194 13.0335 117.177 13.2085 117.161 13.3752H106.236V11.1002H115.111L113.611 11.7752C113.611 11.0752 113.469 10.4669 113.186 9.9502C112.902 9.43353 112.511 9.03353 112.011 8.7502C111.511 8.4502 110.927 8.3002 110.261 8.3002C109.594 8.3002 109.002 8.4502 108.486 8.7502C107.986 9.03353 107.594 9.44186 107.311 9.9752C107.027 10.4919 106.886 11.1085 106.886 11.8252V12.4252C106.886 13.1585 107.044 13.8085 107.361 14.3752C107.694 14.9252 108.152 15.3502 108.736 15.6502C109.336 15.9335 110.036 16.0752 110.836 16.0752C111.552 16.0752 112.177 15.9669 112.711 15.7502C113.261 15.5335 113.761 15.2085 114.211 14.7752L116.286 17.0252C115.669 17.7252 114.894 18.2669 113.961 18.6502C113.027 19.0169 111.952 19.2002 110.736 19.2002Z" fill="#222222"/>
<path d="M127.716 19.0002V16.3752L127.466 15.8002V11.1002C127.466 10.2669 127.208 9.61686 126.691 9.1502C126.191 8.68353 125.416 8.4502 124.366 8.4502C123.649 8.4502 122.941 8.56686 122.241 8.8002C121.558 9.01686 120.974 9.31686 120.491 9.7002L119.091 6.9752C119.824 6.45853 120.708 6.05853 121.741 5.7752C122.774 5.49186 123.824 5.3502 124.891 5.3502C126.941 5.3502 128.533 5.83353 129.666 6.8002C130.799 7.76686 131.366 9.2752 131.366 11.3252V19.0002H127.716ZM123.616 19.2002C122.566 19.2002 121.666 19.0252 120.916 18.6752C120.166 18.3085 119.591 17.8169 119.191 17.2002C118.791 16.5835 118.591 15.8919 118.591 15.1252C118.591 14.3252 118.783 13.6252 119.166 13.0252C119.566 12.4252 120.191 11.9585 121.041 11.6252C121.891 11.2752 122.999 11.1002 124.366 11.1002H127.941V13.3752H124.791C123.874 13.3752 123.241 13.5252 122.891 13.8252C122.558 14.1252 122.391 14.5002 122.391 14.9502C122.391 15.4502 122.583 15.8502 122.966 16.1502C123.366 16.4335 123.908 16.5752 124.591 16.5752C125.241 16.5752 125.824 16.4252 126.341 16.1252C126.858 15.8085 127.233 15.3502 127.466 14.7502L128.066 16.5502C127.783 17.4169 127.266 18.0752 126.516 18.5252C125.766 18.9752 124.799 19.2002 123.616 19.2002Z" fill="#222222"/>
<path d="M134.896 19.0002V5.5502H138.621V9.3502L138.096 8.2502C138.496 7.3002 139.137 6.58353 140.021 6.1002C140.904 5.6002 141.979 5.3502 143.246 5.3502V8.9502C143.079 8.93353 142.929 8.9252 142.796 8.9252C142.662 8.90853 142.521 8.9002 142.371 8.9002C141.304 8.9002 140.437 9.20853 139.771 9.8252C139.121 10.4252 138.796 11.3669 138.796 12.6502V19.0002H134.896Z" fill="#222222"/>
<path d="M153.764 5.3502C154.831 5.3502 155.781 5.56686 156.614 6.0002C157.464 6.41686 158.131 7.06686 158.614 7.9502C159.097 8.81686 159.339 9.93353 159.339 11.3002V19.0002H155.439V11.9002C155.439 10.8169 155.197 10.0169 154.714 9.5002C154.247 8.98353 153.581 8.7252 152.714 8.7252C152.097 8.7252 151.539 8.85853 151.039 9.1252C150.556 9.3752 150.172 9.76686 149.889 10.3002C149.622 10.8335 149.489 11.5169 149.489 12.3502V19.0002H145.589V5.5502H149.314V9.2752L148.614 8.1502C149.097 7.2502 149.789 6.55853 150.689 6.0752C151.589 5.59186 152.614 5.3502 153.764 5.3502Z" fill="#222222"/>
<mask id="path-2-inside-1_114_188" fill="white">
<path fill-rule="evenodd" clip-rule="evenodd" d="M33.5751 0.994629C35.6354 0.994629 37.3057 2.66486 37.3057 4.7252V15.9169C37.3057 17.9772 35.6354 19.6475 33.5751 19.6475H22.3833L18.6527 23.378V19.6475H18.6528V4.7252C18.6528 2.66486 20.323 0.994629 22.3834 0.994629H33.5751Z"/>
</mask>
<path d="M22.3833 19.6475L19.7454 17.0096L20.838 15.9169H22.3833V19.6475ZM18.6527 23.378L21.2906 26.0159L14.9222 32.3844V23.378H18.6527ZM18.6527 19.6475H14.9222V15.9169H18.6527V19.6475ZM18.6528 19.6475H22.3834V23.378H18.6528V19.6475ZM33.5751 4.7252V4.7252V-2.73594C37.6958 -2.73594 41.0362 0.604528 41.0362 4.7252H33.5751ZM33.5751 15.9169V4.7252H41.0362V15.9169H33.5751ZM33.5751 15.9169L33.5751 15.9169H41.0362C41.0362 20.0376 37.6958 23.378 33.5751 23.378V15.9169ZM22.3833 15.9169H33.5751V23.378H22.3833V15.9169ZM16.0148 20.7401L19.7454 17.0096L25.0212 22.2854L21.2906 26.0159L16.0148 20.7401ZM22.3833 19.6475V23.378H14.9222V19.6475H22.3833ZM18.6528 23.378H18.6527V15.9169H18.6528V23.378ZM22.3834 4.7252V19.6475H14.9222V4.7252H22.3834ZM22.3834 4.7252H22.3834H14.9222C14.9222 0.604523 18.2627 -2.73594 22.3834 -2.73594V4.7252ZM33.5751 4.7252H22.3834V-2.73594H33.5751V4.7252Z" fill="#222222" mask="url(#path-2-inside-1_114_188)"/>
<path fill-rule="evenodd" clip-rule="evenodd" d="M3.73057 0.994629C1.67023 0.994629 0 2.66486 0 4.7252V15.9169C0 17.9772 1.67023 19.6475 3.73057 19.6475H14.9224L18.6529 23.378V19.6475H18.6529V4.7252C18.6529 2.66486 16.9826 0.994629 14.9223 0.994629H3.73057Z" fill="#8B34F4"/>
</svg>
